<svg height="140" viewBox="0 0 740 1009" fill="none" xmlns="http://www.w3.org/2000/svg">
<path d="M198.061 924.958C198.061 920.98 198.724 917.461 200.05 914.401C201.478 911.239 203.467 908.638 206.017 906.598C208.567 904.456 211.576 902.875 215.044 901.855C218.614 900.733 222.49 900.172 226.672 900.172C228.508 900.172 230.089 900.274 231.415 900.478C232.843 900.682 234.22 900.886 235.546 901.09H265.381V907.21H256.507L243.196 906.292C246.358 908.026 248.908 910.576 250.846 913.942C252.784 917.308 253.753 920.929 253.753 924.805C253.753 928.783 253.039 932.353 251.611 935.515C250.285 938.575 248.347 941.176 245.797 943.318C243.349 945.46 240.442 947.092 237.076 948.214C233.71 949.234 230.038 949.744 226.06 949.744C224.632 949.744 223.204 949.693 221.776 949.591C220.45 949.489 219.022 949.285 217.492 948.979C215.044 949.897 213.055 951.325 211.525 953.263C209.995 955.099 209.23 957.037 209.23 959.077C209.23 961.729 210.199 963.667 212.137 964.891C214.177 966.013 216.727 966.574 219.787 966.574H238.453C246.409 966.574 252.427 968.257 256.507 971.623C260.587 974.989 262.627 979.324 262.627 984.628C262.627 988.198 261.811 991.411 260.179 994.267C258.547 997.225 256.201 999.724 253.141 1001.76C250.081 1003.8 246.358 1005.39 241.972 1006.51C237.586 1007.63 232.639 1008.19 227.131 1008.19C217.135 1008.19 209.179 1006.2 203.263 1002.22C197.347 998.347 194.389 992.992 194.389 986.158C194.389 982.384 195.46 979.171 197.602 976.519C199.846 973.969 203.008 971.98 207.088 970.552C205.558 969.736 204.181 968.41 202.957 966.574C201.835 964.636 201.274 962.443 201.274 959.995C201.274 956.629 202.243 953.875 204.181 951.733C206.119 949.489 208.363 947.755 210.913 946.531C209.281 945.817 207.7 944.797 206.17 943.471C204.64 942.145 203.263 940.564 202.039 938.728C200.815 936.892 199.846 934.852 199.132 932.608C198.418 930.262 198.061 927.712 198.061 924.958ZM212.902 973C209.944 974.02 207.496 975.601 205.558 977.743C203.722 979.885 202.804 982.384 202.804 985.24C202.804 990.748 205.048 994.879 209.536 997.633C214.126 1000.39 220.042 1001.76 227.284 1001.76C232.078 1001.76 236.158 1001.25 239.524 1000.23C242.992 999.316 245.797 998.041 247.939 996.409C250.183 994.879 251.815 993.094 252.835 991.054C253.855 989.116 254.365 987.127 254.365 985.087C254.365 982.639 253.855 980.599 252.835 978.967C251.917 977.437 250.54 976.213 248.704 975.295C246.97 974.479 244.879 973.867 242.431 973.459C240.085 973.153 237.484 973 234.628 973H212.902ZM245.491 925.264C245.491 919.246 243.757 914.656 240.289 911.494C236.821 908.23 232.282 906.598 226.672 906.598C223.816 906.598 221.164 907.006 218.716 907.822C216.268 908.536 214.126 909.658 212.29 911.188C210.454 912.616 208.975 914.452 207.853 916.696C206.833 918.94 206.323 921.592 206.323 924.652C206.323 930.976 208.21 935.668 211.984 938.728C215.758 941.788 220.45 943.318 226.06 943.318C231.67 943.318 236.311 941.839 239.983 938.881C243.655 935.923 245.491 931.384 245.491 925.264ZM280.318 973V901.09H285.52L287.356 915.472C289.09 910.882 292.048 907.21 296.23 904.456C300.412 901.6 305.104 900.172 310.306 900.172C312.754 900.172 314.896 900.376 316.732 900.784C318.568 901.192 319.996 901.651 321.016 902.161L319.486 909.199C318.262 908.689 316.885 908.23 315.355 907.822C313.825 907.414 312.04 907.21 310 907.21C307.042 907.21 304.237 907.72 301.585 908.74C299.035 909.76 296.74 911.341 294.7 913.483C292.762 915.625 291.181 918.328 289.957 921.592C288.835 924.754 288.274 928.528 288.274 932.914V973H280.318ZM330.788 907.363C335.582 904.813 339.968 902.977 343.946 901.855C348.026 900.733 352.361 900.172 356.951 900.172C360.215 900.172 363.275 900.631 366.131 901.549C369.089 902.467 371.639 903.946 373.781 905.986C376.025 908.026 377.759 910.729 378.983 914.095C380.309 917.359 380.972 921.388 380.972 926.182V973H375.464L373.781 963.514H373.475C370.517 967.084 367.049 969.787 363.071 971.623C359.093 973.357 354.656 974.224 349.76 974.224C346.394 974.224 343.283 973.765 340.427 972.847C337.571 971.827 335.072 970.399 332.93 968.563C330.89 966.727 329.258 964.534 328.034 961.984C326.912 959.332 326.351 956.425 326.351 953.263C326.351 949.489 327.116 946.174 328.646 943.318C330.176 940.462 332.318 938.116 335.072 936.28C337.826 934.342 341.09 932.914 344.864 931.996C348.74 931.078 353.024 930.619 357.716 930.619H373.016V925.876C373.016 918.94 371.486 913.993 368.426 911.035C365.366 908.077 361.388 906.598 356.492 906.598C353.534 906.598 350.117 907.057 346.241 907.975C342.365 908.893 338.234 910.576 333.848 913.024L330.788 907.363ZM373.016 936.892L360.317 937.045C355.727 937.147 351.8 937.657 348.536 938.575C345.272 939.391 342.569 940.513 340.427 941.941C338.387 943.267 336.908 944.899 335.99 946.837C335.072 948.673 334.613 950.662 334.613 952.804C334.613 955.456 335.072 957.751 335.99 959.689C336.908 961.525 338.132 963.055 339.662 964.279C341.192 965.503 342.977 966.421 345.017 967.033C347.159 967.543 349.403 967.798 351.749 967.798C353.585 967.798 355.472 967.594 357.41 967.186C359.348 966.676 361.235 965.962 363.071 965.044C365.009 964.024 366.845 962.8 368.579 961.372C370.313 959.842 371.792 958.006 373.016 955.864V936.892ZM428.399 974.224C425.033 974.224 421.871 973.816 418.913 973C415.955 972.082 413.405 970.858 411.263 969.328V1008.19H403.307V900.172H409.886L411.11 909.352C413.456 907.006 416.414 904.915 419.984 903.079C423.554 901.141 427.889 900.172 432.989 900.172C437.375 900.172 441.404 900.937 445.076 902.467C448.85 903.997 452.114 906.241 454.868 909.199C457.622 912.157 459.764 915.829 461.294 920.215C462.824 924.601 463.589 929.599 463.589 935.209C463.589 941.941 462.569 947.755 460.529 952.651C458.591 957.547 455.939 961.627 452.573 964.891C449.309 968.053 445.535 970.399 441.251 971.929C437.069 973.459 432.785 974.224 428.399 974.224ZM431.306 906.598C428.96 906.598 426.716 906.955 424.574 907.669C422.534 908.281 420.647 909.097 418.913 910.117C417.179 911.137 415.649 912.259 414.323 913.483C412.997 914.707 411.977 915.88 411.263 917.002V962.749C413.507 964.483 416.006 965.758 418.76 966.574C421.616 967.39 424.472 967.798 427.328 967.798C430.898 967.798 434.366 967.237 437.732 966.115C441.098 964.993 444.056 963.157 446.606 960.607C449.258 957.955 451.349 954.589 452.879 950.509C454.511 946.327 455.327 941.227 455.327 935.209C455.327 926.131 453.338 919.093 449.36 914.095C445.484 909.097 439.466 906.598 431.306 906.598ZM490.154 973H482.198V864.37H490.154V910.729C493.52 907.669 497.243 905.17 501.323 903.232C505.403 901.192 509.891 900.172 514.787 900.172C518.765 900.172 522.233 900.784 525.191 902.008C528.149 903.13 530.546 904.762 532.382 906.904C534.32 908.944 535.748 911.392 536.666 914.248C537.686 917.002 538.196 920.062 538.196 923.428V973H530.24V925.876C530.24 918.838 528.659 913.891 525.497 911.035C522.335 908.077 518.153 906.598 512.951 906.598C509.279 906.598 505.454 907.618 501.476 909.658C497.498 911.596 493.724 914.248 490.154 917.614V973Z" fill="#777777"/>
<path d="M0 370C0 70 173 0 370 0C567 0 740 70 740 370C740 670 567 740 370 740C173 740 0 670 0 370Z" fill="#FAFA00"/>
<path d="M413.6 545.2C412.2 538.2 411.267 532.367 410.8 527.7C410.8 522.567 410.567 516.733 410.1 510.2C394.233 526.067 377.2 537.733 359 545.2C341.267 552.667 322.833 556.4 303.7 556.4C271.967 556.4 247.467 547.767 230.2 530.5C213.4 513.233 205 492 205 466.8C205 444.4 211.067 425.5 223.2 410.1C235.333 394.233 251.2 381.4 270.8 371.6C290.4 361.333 312.1 353.633 335.9 348.5C359.7 342.9 383.267 339.867 406.6 339.4V300.9C406.6 287.367 404.967 275 401.7 263.8C398.9 252.133 393.533 243.033 385.6 236.5C377.667 229.5 366 226 350.6 226C340.333 226.467 329.833 228.8 319.1 233C308.833 236.733 300.667 242.8 294.6 251.2C298.333 255.4 300.667 260.067 301.6 265.2C302.533 269.867 303 274.067 303 277.8C303 286.2 299.733 295.067 293.2 304.4C286.667 313.267 276.167 317.467 261.7 317C249.1 316.533 239.3 312.1 232.3 303.7C225.767 295.3 222.5 285.267 222.5 273.6C222.5 255.867 228.8 240.467 241.4 227.4C254.467 213.867 271.967 203.367 293.9 195.9C315.833 187.967 340.333 184 367.4 184C407.533 184 438.333 194.5 459.8 215.5C481.267 236.5 491.767 270.1 491.3 316.3C491.3 332.633 491.3 347.567 491.3 361.1C491.3 374.167 491.067 387.467 490.6 401C490.6 414.067 490.6 428.767 490.6 445.1C490.6 452.1 490.367 460.967 489.9 471.7C489.433 481.967 488.733 492.233 487.8 502.5C496.2 501.567 504.6 501.1 513 501.1C521.867 500.633 529.1 500.167 534.7 499.7V545.2H413.6ZM405.9 380.7C391.9 381.633 378.133 383.967 364.6 387.7C351.067 390.967 338.933 395.633 328.2 401.7C317.467 407.767 308.833 415.467 302.3 424.8C296.233 433.667 293.433 443.933 293.9 455.6C294.367 470.067 299.033 480.8 307.9 487.8C316.767 494.333 327.033 497.6 338.7 497.6C352.233 497.6 364.367 494.8 375.1 489.2C386.3 483.6 396.567 476.133 405.9 466.8C405.9 462.133 405.9 457.233 405.9 452.1C405.9 446.967 405.9 441.833 405.9 436.7C405.9 430.167 405.9 422 405.9 412.2C405.9 402.4 405.9 391.9 405.9 380.7Z" fill="white"/>
</svg>
